<?xml version="1.0" encoding="UTF-8"?>
<!-- Generated by Pixelmator Pro 3.7.1 -->
<svg width="180" height="380" viewBox="0 0 180 380" xmlns="http://www.w3.org/2000/svg">
    <g id="Group">
        <path id="Path" fill="#929292" fill-rule="evenodd" stroke="none" d="M 0 0 L 180 0 L 180 380 L 0 380 L 0 0 Z"/>
        <g id="Group-copy-2">
            <path id="path1" fill="#d5d5d5" stroke="none" d="M 96.871605 327.730347 L 200.619553 366.524048 L 200.619553 291.301941 L 96.898994 252.519012 L 96.871605 327.730347 Z M -0.555632 189.839081 L -0.555632 216.07869 L 65.177002 240.482742 L 200.618378 189.839081 L 200.618378 114.617004 L -0.555632 189.839081 Z M -0.555632 90.127167 L -0.555632 165.348434 L 200.618378 90.127167 L 200.618378 14.90509 L -0.555632 90.127167 Z"/>
        </g>
        <g id="Group-copy">
            <path id="path2" fill="#151515" stroke="none" d="M 88.917664 366.961487 L 84.662155 366.961487 L 80.406601 355.580414 L 84.662155 355.580414 L 88.917664 366.961487 Z"/>
            <path id="path3" fill="#151515" stroke="none" d="M 91.787643 366.961487 L 90.303177 366.961487 L 86.047623 355.580414 L 90.303177 355.580414 L 93.168259 363.242767 L 91.787643 366.961487 Z"/>
            <path id="path4" fill="#151515" stroke="none" d="M 98.104134 361.449707 L 100.29882 355.580353 L 96.043266 355.580353 L 93.84919 361.448151 L 98.104134 361.449707 Z"/>
            <path id="path5" fill="#151515" stroke="none" d="M 94.510796 354.037872 L 90.456184 354.037872 C 90.456184 354.037872 90.42601 351.849365 87.355293 351.849365 C 84.284645 351.849365 84.353683 354.530212 84.353683 354.530212 L 80.299072 354.530212 C 80.299072 354.530212 80.147308 348 87.322937 348 C 94.498619 348 94.510796 354.037872 94.510796 354.037872 Z"/>
        </g>
    </g>
</svg>
